# Tiled2Unity generated file. Do not modify by hand.
# Wavefront file for 'foo_mesh_0001.obj'

# Vertices (Count = 856)
v -2400 -2752 0
v -2466 -2752 0
v -2466 -2704 0
v -2400 -2704 0
v -2352 -2736 0
v -2418 -2736 0
v -2418 -2688 0
v -2352 -2688 0
v -2304 -2688 0
v -2370 -2688 0
v -2370 -2640 0
v -2304 -2640 0
v -2352 -2704 0
v -2418 -2704 0
v -2418 -2656 0
v -2352 -2656 0
v -2208 -2656 0
v -2274 -2656 0
v -2274 -2608 0
v -2208 -2608 0
v -2256 -2672 0
v -2322 -2672 0
v -2322 -2624 0
v -2256 -2624 0
v -2112 -2624 0
v -2178 -2624 0
v -2178 -2576 0
v -2112 -2576 0
v -2160 -2640 0
v -2226 -2640 0
v -2226 -2592 0
v -2160 -2592 0
v -2064 -2608 0
v -2130 -2608 0
v -2130 -2560 0
v -2064 -2560 0
v -1920 -2560 0
v -1986 -2560 0
v -1986 -2512 0
v -1920 -2512 0
v -1968 -2576 0
v -2034 -2576 0
v -2034 -2528 0
v -1968 -2528 0
v -2016 -2560 0
v -2082 -2560 0
v -2082 -2512 0
v -2016 -2512 0
v -1824 -2528 0
v -1890 -2528 0
v -1890 -2480 0
v -1824 -2480 0
v -1872 -2544 0
v -1938 -2544 0
v -1938 -2496 0
v -1872 -2496 0
v -1776 -2512 0
v -1842 -2512 0
v -1842 -2464 0
v -1776 -2464 0
v -1536 -2464 0
v -1602 -2464 0
v -1602 -2416 0
v -1536 -2416 0
v -1584 -2480 0
v -1650 -2480 0
v -1650 -2432 0
v -1584 -2432 0
v -1632 -2464 0
v -1698 -2464 0
v -1698 -2416 0
v -1632 -2416 0
v -1680 -2480 0
v -1746 -2480 0
v -1746 -2432 0
v -1680 -2432 0
v -1728 -2464 0
v -1794 -2464 0
v -1794 -2416 0
v -1728 -2416 0
v -1440 -2432 0
v -1506 -2432 0
v -1506 -2384 0
v -1440 -2384 0
v -1488 -2448 0
v -1554 -2448 0
v -1554 -2400 0
v -1488 -2400 0
v -1392 -2416 0
v -1458 -2416 0
v -1458 -2368 0
v -1392 -2368 0
v -1344 -2368 0
v -1410 -2368 0
v -1410 -2320 0
v -1344 -2320 0
v -1344 -2336 0
v -1410 -2336 0
v -1410 -2288 0
v -1344 -2288 0
v -1344 -2304 0
v -1410 -2304 0
v -1410 -2256 0
v -1344 -2256 0
v -1344 -2272 0
v -1410 -2272 0
v -1410 -2224 0
v -1344 -2224 0
v -1296 -2256 0
v -1362 -2256 0
v -1362 -2208 0
v -1296 -2208 0
v -1296 -2224 0
v -1362 -2224 0
v -1362 -2176 0
v -1296 -2176 0
v -1248 -2176 0
v -1314 -2176 0
v -1314 -2128 0
v -1248 -2128 0
v -1248 -2144 0
v -1314 -2144 0
v -1314 -2096 0
v -1248 -2096 0
v -1200 -2128 0
v -1266 -2128 0
v -1266 -2080 0
v -1200 -2080 0
v -4608 -2112 0
v -4674 -2112 0
v -4674 -2064 0
v -4608 -2064 0
v -1152 -2080 0
v -1218 -2080 0
v -1218 -2032 0
v -1152 -2032 0
v -1200 -2096 0
v -1266 -2096 0
v -1266 -2048 0
v -1200 -2048 0
v -4608 -2080 0
v -4674 -2080 0
v -4674 -2032 0
v -4608 -2032 0
v -4656 -2096 0
v -4722 -2096 0
v -4722 -2048 0
v -4656 -2048 0
v -1104 -2064 0
v -1170 -2064 0
v -1170 -2016 0
v -1104 -2016 0
v -4608 -2048 0
v -4674 -2048 0
v -4674 -2000 0
v -4608 -2000 0
v -1056 -2016 0
v -1122 -2016 0
v -1122 -1968 0
v -1056 -1968 0
v -1104 -2032 0
v -1170 -2032 0
v -1170 -1984 0
v -1104 -1984 0
v -3072 -2016 0
v -3138 -2016 0
v -3138 -1968 0
v -3072 -1968 0
v -3168 -2016 0
v -3234 -2016 0
v -3234 -1968 0
v -3168 -1968 0
v -3264 -2016 0
v -3330 -2016 0
v -3330 -1968 0
v -3264 -1968 0
v -3360 -2016 0
v -3426 -2016 0
v -3426 -1968 0
v -3360 -1968 0
v -4560 -2032 0
v -4626 -2032 0
v -4626 -1984 0
v -4560 -1984 0
v -1056 -1984 0
v -1122 -1984 0
v -1122 -1936 0
v -1056 -1936 0
v -2976 -1984 0
v -3042 -1984 0
v -3042 -1936 0
v -2976 -1936 0
v -3024 -2000 0
v -3090 -2000 0
v -3090 -1952 0
v -3024 -1952 0
v -3120 -2000 0
v -3186 -2000 0
v -3186 -1952 0
v -3120 -1952 0
v -3216 -2000 0
v -3282 -2000 0
v -3282 -1952 0
v -3216 -1952 0
v -3312 -2000 0
v -3378 -2000 0
v -3378 -1952 0
v -3312 -1952 0
v -3408 -2000 0
v -3474 -2000 0
v -3474 -1952 0
v -3408 -1952 0
v -3456 -1984 0
v -3522 -1984 0
v -3522 -1936 0
v -3456 -1936 0
v -4512 -1984 0
v -4578 -1984 0
v -4578 -1936 0
v -4512 -1936 0
v -4560 -2000 0
v -4626 -2000 0
v -4626 -1952 0
v -4560 -1952 0
v -1056 -1952 0
v -1122 -1952 0
v -1122 -1904 0
v -1056 -1904 0
v -2880 -1952 0
v -2946 -1952 0
v -2946 -1904 0
v -2880 -1904 0
v -2928 -1968 0
v -2994 -1968 0
v -2994 -1920 0
v -2928 -1920 0
v -3024 -1968 0
v -3090 -1968 0
v -3090 -1920 0
v -3024 -1920 0
v -3408 -1968 0
v -3474 -1968 0
v -3474 -1920 0
v -3408 -1920 0
v -3504 -1968 0
v -3570 -1968 0
v -3570 -1920 0
v -3504 -1920 0
v -4464 -1968 0
v -4530 -1968 0
v -4530 -1920 0
v -4464 -1920 0
v -1056 -1920 0
v -1122 -1920 0
v -1122 -1872 0
v -1056 -1872 0
v -2784 -1920 0
v -2850 -1920 0
v -2850 -1872 0
v -2784 -1872 0
v -2832 -1936 0
v -2898 -1936 0
v -2898 -1888 0
v -2832 -1888 0
v -3504 -1936 0
v -3570 -1936 0
v -3570 -1888 0
v -3504 -1888 0
v -3552 -1920 0
v -3618 -1920 0
v -3618 -1872 0
v -3552 -1872 0
v -4416 -1920 0
v -4482 -1920 0
v -4482 -1872 0
v -4416 -1872 0
v -4464 -1936 0
v -4530 -1936 0
v -4530 -1888 0
v -4464 -1888 0
v -1104 -1904 0
v -1170 -1904 0
v -1170 -1856 0
v -1104 -1856 0
v -2592 -1888 0
v -2658 -1888 0
v -2658 -1840 0
v -2592 -1840 0
v -2640 -1904 0
v -2706 -1904 0
v -2706 -1856 0
v -2640 -1856 0
v -2688 -1888 0
v -2754 -1888 0
v -2754 -1840 0
v -2688 -1840 0
v -2736 -1904 0
v -2802 -1904 0
v -2802 -1856 0
v -2736 -1856 0
v -3552 -1888 0
v -3618 -1888 0
v -3618 -1840 0
v -3552 -1840 0
v -1104 -1872 0
v -1170 -1872 0
v -1170 -1824 0
v -1104 -1824 0
v -2544 -1872 0
v -2610 -1872 0
v -2610 -1824 0
v -2544 -1824 0
v -3600 -1872 0
v -3666 -1872 0
v -3666 -1824 0
v -3600 -1824 0
v -1104 -1840 0
v -1170 -1840 0
v -1170 -1792 0
v -1104 -1792 0
v -3600 -1840 0
v -3666 -1840 0
v -3666 -1792 0
v -3600 -1792 0
v -1104 -1808 0
v -1170 -1808 0
v -1170 -1760 0
v -1104 -1760 0
v -3600 -1808 0
v -3666 -1808 0
v -3666 -1760 0
v -3600 -1760 0
v -1104 -1776 0
v -1170 -1776 0
v -1170 -1728 0
v -1104 -1728 0
v -3600 -1776 0
v -3666 -1776 0
v -3666 -1728 0
v -3600 -1728 0
v -1104 -1744 0
v -1170 -1744 0
v -1170 -1696 0
v -1104 -1696 0
v -3600 -1744 0
v -3666 -1744 0
v -3666 -1696 0
v -3600 -1696 0
v -1104 -1712 0
v -1170 -1712 0
v -1170 -1664 0
v -1104 -1664 0
v -3600 -1712 0
v -3666 -1712 0
v -3666 -1664 0
v -3600 -1664 0
v -1104 -1680 0
v -1170 -1680 0
v -1170 -1632 0
v -1104 -1632 0
v -3600 -1680 0
v -3666 -1680 0
v -3666 -1632 0
v -3600 -1632 0
v -1056 -1632 0
v -1122 -1632 0
v -1122 -1584 0
v -1056 -1584 0
v -3600 -1648 0
v -3666 -1648 0
v -3666 -1600 0
v -3600 -1600 0
v -1008 -1616 0
v -1074 -1616 0
v -1074 -1568 0
v -1008 -1568 0
v -3552 -1600 0
v -3618 -1600 0
v -3618 -1552 0
v -3552 -1552 0
v -3600 -1616 0
v -3666 -1616 0
v -3666 -1568 0
v -3600 -1568 0
v -1008 -1584 0
v -1074 -1584 0
v -1074 -1536 0
v -1008 -1536 0
v -2352 -1584 0
v -2418 -1584 0
v -2418 -1536 0
v -2352 -1536 0
v -2400 -1568 0
v -2466 -1568 0
v -2466 -1520 0
v -2400 -1520 0
v -2448 -1584 0
v -2514 -1584 0
v -2514 -1536 0
v -2448 -1536 0
v -3552 -1568 0
v -3618 -1568 0
v -3618 -1520 0
v -3552 -1520 0
v -960 -1536 0
v -1026 -1536 0
v -1026 -1488 0
v -960 -1488 0
v -1008 -1552 0
v -1074 -1552 0
v -1074 -1504 0
v -1008 -1504 0
v -3456 -1536 0
v -3522 -1536 0
v -3522 -1488 0
v -3456 -1488 0
v -3504 -1552 0
v -3570 -1552 0
v -3570 -1504 0
v -3504 -1504 0
v -960 -1504 0
v -1026 -1504 0
v -1026 -1456 0
v -960 -1456 0
v -3264 -1504 0
v -3330 -1504 0
v -3330 -1456 0
v -3264 -1456 0
v -3312 -1520 0
v -3378 -1520 0
v -3378 -1472 0
v -3312 -1472 0
v -3360 -1504 0
v -3426 -1504 0
v -3426 -1456 0
v -3360 -1456 0
v -3408 -1520 0
v -3474 -1520 0
v -3474 -1472 0
v -3408 -1472 0
v -960 -1472 0
v -1026 -1472 0
v -1026 -1424 0
v -960 -1424 0
v -2592 -1472 0
v -2658 -1472 0
v -2658 -1424 0
v -2592 -1424 0
v -2688 -1472 0
v -2754 -1472 0
v -2754 -1424 0
v -2688 -1424 0
v -2784 -1472 0
v -2850 -1472 0
v -2850 -1424 0
v -2784 -1424 0
v -2880 -1472 0
v -2946 -1472 0
v -2946 -1424 0
v -2880 -1424 0
v -3072 -1472 0
v -3138 -1472 0
v -3138 -1424 0
v -3072 -1424 0
v -3216 -1488 0
v -3282 -1488 0
v -3282 -1440 0
v -3216 -1440 0
v -960 -1440 0
v -1026 -1440 0
v -1026 -1392 0
v -960 -1392 0
v -2496 -1440 0
v -2562 -1440 0
v -2562 -1392 0
v -2496 -1392 0
v -2544 -1456 0
v -2610 -1456 0
v -2610 -1408 0
v -2544 -1408 0
v -2640 -1456 0
v -2706 -1456 0
v -2706 -1408 0
v -2640 -1408 0
v -2736 -1456 0
v -2802 -1456 0
v -2802 -1408 0
v -2736 -1408 0
v -2832 -1456 0
v -2898 -1456 0
v -2898 -1408 0
v -2832 -1408 0
v -2928 -1456 0
v -2994 -1456 0
v -2994 -1408 0
v -2928 -1408 0
v -2976 -1440 0
v -3042 -1440 0
v -3042 -1392 0
v -2976 -1392 0
v -3024 -1456 0
v -3090 -1456 0
v -3090 -1408 0
v -3024 -1408 0
v -3120 -1456 0
v -3186 -1456 0
v -3186 -1408 0
v -3120 -1408 0
v -3168 -1440 0
v -3234 -1440 0
v -3234 -1392 0
v -3168 -1392 0
v -960 -1408 0
v -1026 -1408 0
v -1026 -1360 0
v -960 -1360 0
v -2400 -1408 0
v -2466 -1408 0
v -2466 -1360 0
v -2400 -1360 0
v -2448 -1424 0
v -2514 -1424 0
v -2514 -1376 0
v -2448 -1376 0
v -960 -1376 0
v -1026 -1376 0
v -1026 -1328 0
v -960 -1328 0
v -2352 -1392 0
v -2418 -1392 0
v -2418 -1344 0
v -2352 -1344 0
v -960 -1344 0
v -1026 -1344 0
v -1026 -1296 0
v -960 -1296 0
v -2304 -1344 0
v -2370 -1344 0
v -2370 -1296 0
v -2304 -1296 0
v -2352 -1360 0
v -2418 -1360 0
v -2418 -1312 0
v -2352 -1312 0
v -1008 -1328 0
v -1074 -1328 0
v -1074 -1280 0
v -1008 -1280 0
v -2304 -1312 0
v -2370 -1312 0
v -2370 -1264 0
v -2304 -1264 0
v -3264 -1312 0
v -3330 -1312 0
v -3330 -1264 0
v -3264 -1264 0
v -3312 -1328 0
v -3378 -1328 0
v -3378 -1280 0
v -3312 -1280 0
v -1008 -1296 0
v -1074 -1296 0
v -1074 -1248 0
v -1008 -1248 0
v -2256 -1296 0
v -2322 -1296 0
v -2322 -1248 0
v -2256 -1248 0
v -3264 -1280 0
v -3330 -1280 0
v -3330 -1232 0
v -3264 -1232 0
v -3312 -1296 0
v -3378 -1296 0
v -3378 -1248 0
v -3312 -1248 0
v -1008 -1264 0
v -1074 -1264 0
v -1074 -1216 0
v -1008 -1216 0
v -1056 -1248 0
v -1122 -1248 0
v -1122 -1200 0
v -1056 -1200 0
v -2256 -1264 0
v -2322 -1264 0
v -2322 -1216 0
v -2256 -1216 0
v -3168 -1248 0
v -3234 -1248 0
v -3234 -1200 0
v -3168 -1200 0
v -3216 -1264 0
v -3282 -1264 0
v -3282 -1216 0
v -3216 -1216 0
v -1056 -1216 0
v -1122 -1216 0
v -1122 -1168 0
v -1056 -1168 0
v -2256 -1232 0
v -2322 -1232 0
v -2322 -1184 0
v -2256 -1184 0
v -3072 -1216 0
v -3138 -1216 0
v -3138 -1168 0
v -3072 -1168 0
v -3120 -1232 0
v -3186 -1232 0
v -3186 -1184 0
v -3120 -1184 0
v -1056 -1184 0
v -1122 -1184 0
v -1122 -1136 0
v -1056 -1136 0
v -2256 -1200 0
v -2322 -1200 0
v -2322 -1152 0
v -2256 -1152 0
v -3024 -1200 0
v -3090 -1200 0
v -3090 -1152 0
v -3024 -1152 0
v -1056 -1152 0
v -1122 -1152 0
v -1122 -1104 0
v -1056 -1104 0
v -2256 -1168 0
v -2322 -1168 0
v -2322 -1120 0
v -2256 -1120 0
v -2304 -1152 0
v -2370 -1152 0
v -2370 -1104 0
v -2304 -1104 0
v -2976 -1152 0
v -3042 -1152 0
v -3042 -1104 0
v -2976 -1104 0
v -3024 -1168 0
v -3090 -1168 0
v -3090 -1120 0
v -3024 -1120 0
v -1056 -1120 0
v -1122 -1120 0
v -1122 -1072 0
v -1056 -1072 0
v -2304 -1120 0
v -2370 -1120 0
v -2370 -1072 0
v -2304 -1072 0
v -2880 -1120 0
v -2946 -1120 0
v -2946 -1072 0
v -2880 -1072 0
v -2928 -1136 0
v -2994 -1136 0
v -2994 -1088 0
v -2928 -1088 0
v -1008 -1104 0
v -1074 -1104 0
v -1074 -1056 0
v -1008 -1056 0
v -2352 -1104 0
v -2418 -1104 0
v -2418 -1056 0
v -2352 -1056 0
v -2832 -1104 0
v -2898 -1104 0
v -2898 -1056 0
v -2832 -1056 0
v -960 -1056 0
v -1026 -1056 0
v -1026 -1008 0
v -960 -1008 0
v -1008 -1072 0
v -1074 -1072 0
v -1074 -1024 0
v -1008 -1024 0
v -2352 -1072 0
v -2418 -1072 0
v -2418 -1024 0
v -2352 -1024 0
v -2400 -1056 0
v -2466 -1056 0
v -2466 -1008 0
v -2400 -1008 0
v -2784 -1056 0
v -2850 -1056 0
v -2850 -1008 0
v -2784 -1008 0
v -2832 -1072 0
v -2898 -1072 0
v -2898 -1024 0
v -2832 -1024 0
v -912 -1040 0
v -978 -1040 0
v -978 -992 0
v -912 -992 0
v -2400 -1024 0
v -2466 -1024 0
v -2466 -976 0
v -2400 -976 0
v -2688 -1024 0
v -2754 -1024 0
v -2754 -976 0
v -2688 -976 0
v -2736 -1040 0
v -2802 -1040 0
v -2802 -992 0
v -2736 -992 0
v -864 -992 0
v -930 -992 0
v -930 -944 0
v -864 -944 0
v -912 -1008 0
v -978 -1008 0
v -978 -960 0
v -912 -960 0
v -2448 -1008 0
v -2514 -1008 0
v -2514 -960 0
v -2448 -960 0
v -2496 -992 0
v -2562 -992 0
v -2562 -944 0
v -2496 -944 0
v -2544 -1008 0
v -2610 -1008 0
v -2610 -960 0
v -2544 -960 0
v -2592 -992 0
v -2658 -992 0
v -2658 -944 0
v -2592 -944 0
v -2640 -1008 0
v -2706 -1008 0
v -2706 -960 0
v -2640 -960 0
v -864 -960 0
v -930 -960 0
v -930 -912 0
v -864 -912 0
v -864 -928 0
v -930 -928 0
v -930 -880 0
v -864 -880 0
v -864 -896 0
v -930 -896 0
v -930 -848 0
v -864 -848 0
v -912 -880 0
v -978 -880 0
v -978 -832 0
v -912 -832 0
v -960 -864 0
v -1026 -864 0
v -1026 -816 0
v -960 -816 0
v -960 -832 0
v -1026 -832 0
v -1026 -784 0
v -960 -784 0
v -1008 -816 0
v -1074 -816 0
v -1074 -768 0
v -1008 -768 0
v -1056 -800 0
v -1122 -800 0
v -1122 -752 0
v -1056 -752 0
v -1056 -768 0
v -1122 -768 0
v -1122 -720 0
v -1056 -720 0
v -3168 -768 0
v -3234 -768 0
v -3234 -720 0
v -3168 -720 0
v -3216 -784 0
v -3282 -784 0
v -3282 -736 0
v -3216 -736 0
v -3264 -768 0
v -3330 -768 0
v -3330 -720 0
v -3264 -720 0
v -1056 -736 0
v -1122 -736 0
v -1122 -688 0
v -1056 -688 0
v -1104 -752 0
v -1170 -752 0
v -1170 -704 0
v -1104 -704 0
v -3216 -752 0
v -3282 -752 0
v -3282 -704 0
v -3216 -704 0
v -864 -704 0
v -930 -704 0
v -930 -656 0
v -864 -656 0
v -1008 -720 0
v -1074 -720 0
v -1074 -672 0
v -1008 -672 0
v -768 -672 0
v -834 -672 0
v -834 -624 0
v -768 -624 0
v -816 -688 0
v -882 -688 0
v -882 -640 0
v -816 -640 0
v -912 -688 0
v -978 -688 0
v -978 -640 0
v -912 -640 0
v -960 -672 0
v -1026 -672 0
v -1026 -624 0
v -960 -624 0
v -1008 -688 0
v -1074 -688 0
v -1074 -640 0
v -1008 -640 0
v -672 -640 0
v -738 -640 0
v -738 -592 0
v -672 -592 0
v -720 -656 0
v -786 -656 0
v -786 -608 0
v -720 -608 0
v -624 -624 0
v -690 -624 0
v -690 -576 0
v -624 -576 0
v -624 -592 0
v -690 -592 0
v -690 -544 0
v -624 -544 0
v -672 -576 0
v -738 -576 0
v -738 -528 0
v -672 -528 0
v -624 -560 0
v -690 -560 0
v -690 -512 0
v -624 -512 0
v -672 -544 0
v -738 -544 0
v -738 -496 0
v -672 -496 0

# Texture cooridinates (Count = 4)
vt 0 0
vt 1 0
vt 1 1
vt 0 1

# Normal
vn 0 0 -1

# Mesh description
g foo_mesh_0001

# Faces
f 1/1/1 2/2/1 3/3/1 4/4/1
f 5/1/1 6/2/1 7/3/1 8/4/1
f 9/1/1 10/2/1 11/3/1 12/4/1
f 13/1/1 14/2/1 15/3/1 16/4/1
f 17/1/1 18/2/1 19/3/1 20/4/1
f 21/1/1 22/2/1 23/3/1 24/4/1
f 25/1/1 26/2/1 27/3/1 28/4/1
f 29/1/1 30/2/1 31/3/1 32/4/1
f 33/1/1 34/2/1 35/3/1 36/4/1
f 37/1/1 38/2/1 39/3/1 40/4/1
f 41/1/1 42/2/1 43/3/1 44/4/1
f 45/1/1 46/2/1 47/3/1 48/4/1
f 49/1/1 50/2/1 51/3/1 52/4/1
f 53/1/1 54/2/1 55/3/1 56/4/1
f 57/1/1 58/2/1 59/3/1 60/4/1
f 61/1/1 62/2/1 63/3/1 64/4/1
f 65/1/1 66/2/1 67/3/1 68/4/1
f 69/1/1 70/2/1 71/3/1 72/4/1
f 73/1/1 74/2/1 75/3/1 76/4/1
f 77/1/1 78/2/1 79/3/1 80/4/1
f 81/1/1 82/2/1 83/3/1 84/4/1
f 85/1/1 86/2/1 87/3/1 88/4/1
f 89/1/1 90/2/1 91/3/1 92/4/1
f 93/1/1 94/2/1 95/3/1 96/4/1
f 97/1/1 98/2/1 99/3/1 100/4/1
f 101/1/1 102/2/1 103/3/1 104/4/1
f 105/1/1 106/2/1 107/3/1 108/4/1
f 109/1/1 110/2/1 111/3/1 112/4/1
f 113/1/1 114/2/1 115/3/1 116/4/1
f 117/1/1 118/2/1 119/3/1 120/4/1
f 121/1/1 122/2/1 123/3/1 124/4/1
f 125/1/1 126/2/1 127/3/1 128/4/1
f 129/1/1 130/2/1 131/3/1 132/4/1
f 133/1/1 134/2/1 135/3/1 136/4/1
f 137/1/1 138/2/1 139/3/1 140/4/1
f 141/1/1 142/2/1 143/3/1 144/4/1
f 145/1/1 146/2/1 147/3/1 148/4/1
f 149/1/1 150/2/1 151/3/1 152/4/1
f 153/1/1 154/2/1 155/3/1 156/4/1
f 157/1/1 158/2/1 159/3/1 160/4/1
f 161/1/1 162/2/1 163/3/1 164/4/1
f 165/1/1 166/2/1 167/3/1 168/4/1
f 169/1/1 170/2/1 171/3/1 172/4/1
f 173/1/1 174/2/1 175/3/1 176/4/1
f 177/1/1 178/2/1 179/3/1 180/4/1
f 181/1/1 182/2/1 183/3/1 184/4/1
f 185/1/1 186/2/1 187/3/1 188/4/1
f 189/1/1 190/2/1 191/3/1 192/4/1
f 193/1/1 194/2/1 195/3/1 196/4/1
f 197/1/1 198/2/1 199/3/1 200/4/1
f 201/1/1 202/2/1 203/3/1 204/4/1
f 205/1/1 206/2/1 207/3/1 208/4/1
f 209/1/1 210/2/1 211/3/1 212/4/1
f 213/1/1 214/2/1 215/3/1 216/4/1
f 217/1/1 218/2/1 219/3/1 220/4/1
f 221/1/1 222/2/1 223/3/1 224/4/1
f 225/1/1 226/2/1 227/3/1 228/4/1
f 229/1/1 230/2/1 231/3/1 232/4/1
f 233/1/1 234/2/1 235/3/1 236/4/1
f 237/1/1 238/2/1 239/3/1 240/4/1
f 241/1/1 242/2/1 243/3/1 244/4/1
f 245/1/1 246/2/1 247/3/1 248/4/1
f 249/1/1 250/2/1 251/3/1 252/4/1
f 253/1/1 254/2/1 255/3/1 256/4/1
f 257/1/1 258/2/1 259/3/1 260/4/1
f 261/1/1 262/2/1 263/3/1 264/4/1
f 265/1/1 266/2/1 267/3/1 268/4/1
f 269/1/1 270/2/1 271/3/1 272/4/1
f 273/1/1 274/2/1 275/3/1 276/4/1
f 277/1/1 278/2/1 279/3/1 280/4/1
f 281/1/1 282/2/1 283/3/1 284/4/1
f 285/1/1 286/2/1 287/3/1 288/4/1
f 289/1/1 290/2/1 291/3/1 292/4/1
f 293/1/1 294/2/1 295/3/1 296/4/1
f 297/1/1 298/2/1 299/3/1 300/4/1
f 301/1/1 302/2/1 303/3/1 304/4/1
f 305/1/1 306/2/1 307/3/1 308/4/1
f 309/1/1 310/2/1 311/3/1 312/4/1
f 313/1/1 314/2/1 315/3/1 316/4/1
f 317/1/1 318/2/1 319/3/1 320/4/1
f 321/1/1 322/2/1 323/3/1 324/4/1
f 325/1/1 326/2/1 327/3/1 328/4/1
f 329/1/1 330/2/1 331/3/1 332/4/1
f 333/1/1 334/2/1 335/3/1 336/4/1
f 337/1/1 338/2/1 339/3/1 340/4/1
f 341/1/1 342/2/1 343/3/1 344/4/1
f 345/1/1 346/2/1 347/3/1 348/4/1
f 349/1/1 350/2/1 351/3/1 352/4/1
f 353/1/1 354/2/1 355/3/1 356/4/1
f 357/1/1 358/2/1 359/3/1 360/4/1
f 361/1/1 362/2/1 363/3/1 364/4/1
f 365/1/1 366/2/1 367/3/1 368/4/1
f 369/1/1 370/2/1 371/3/1 372/4/1
f 373/1/1 374/2/1 375/3/1 376/4/1
f 377/1/1 378/2/1 379/3/1 380/4/1
f 381/1/1 382/2/1 383/3/1 384/4/1
f 385/1/1 386/2/1 387/3/1 388/4/1
f 389/1/1 390/2/1 391/3/1 392/4/1
f 393/1/1 394/2/1 395/3/1 396/4/1
f 397/1/1 398/2/1 399/3/1 400/4/1
f 401/1/1 402/2/1 403/3/1 404/4/1
f 405/1/1 406/2/1 407/3/1 408/4/1
f 409/1/1 410/2/1 411/3/1 412/4/1
f 413/1/1 414/2/1 415/3/1 416/4/1
f 417/1/1 418/2/1 419/3/1 420/4/1
f 421/1/1 422/2/1 423/3/1 424/4/1
f 425/1/1 426/2/1 427/3/1 428/4/1
f 429/1/1 430/2/1 431/3/1 432/4/1
f 433/1/1 434/2/1 435/3/1 436/4/1
f 437/1/1 438/2/1 439/3/1 440/4/1
f 441/1/1 442/2/1 443/3/1 444/4/1
f 445/1/1 446/2/1 447/3/1 448/4/1
f 449/1/1 450/2/1 451/3/1 452/4/1
f 453/1/1 454/2/1 455/3/1 456/4/1
f 457/1/1 458/2/1 459/3/1 460/4/1
f 461/1/1 462/2/1 463/3/1 464/4/1
f 465/1/1 466/2/1 467/3/1 468/4/1
f 469/1/1 470/2/1 471/3/1 472/4/1
f 473/1/1 474/2/1 475/3/1 476/4/1
f 477/1/1 478/2/1 479/3/1 480/4/1
f 481/1/1 482/2/1 483/3/1 484/4/1
f 485/1/1 486/2/1 487/3/1 488/4/1
f 489/1/1 490/2/1 491/3/1 492/4/1
f 493/1/1 494/2/1 495/3/1 496/4/1
f 497/1/1 498/2/1 499/3/1 500/4/1
f 501/1/1 502/2/1 503/3/1 504/4/1
f 505/1/1 506/2/1 507/3/1 508/4/1
f 509/1/1 510/2/1 511/3/1 512/4/1
f 513/1/1 514/2/1 515/3/1 516/4/1
f 517/1/1 518/2/1 519/3/1 520/4/1
f 521/1/1 522/2/1 523/3/1 524/4/1
f 525/1/1 526/2/1 527/3/1 528/4/1
f 529/1/1 530/2/1 531/3/1 532/4/1
f 533/1/1 534/2/1 535/3/1 536/4/1
f 537/1/1 538/2/1 539/3/1 540/4/1
f 541/1/1 542/2/1 543/3/1 544/4/1
f 545/1/1 546/2/1 547/3/1 548/4/1
f 549/1/1 550/2/1 551/3/1 552/4/1
f 553/1/1 554/2/1 555/3/1 556/4/1
f 557/1/1 558/2/1 559/3/1 560/4/1
f 561/1/1 562/2/1 563/3/1 564/4/1
f 565/1/1 566/2/1 567/3/1 568/4/1
f 569/1/1 570/2/1 571/3/1 572/4/1
f 573/1/1 574/2/1 575/3/1 576/4/1
f 577/1/1 578/2/1 579/3/1 580/4/1
f 581/1/1 582/2/1 583/3/1 584/4/1
f 585/1/1 586/2/1 587/3/1 588/4/1
f 589/1/1 590/2/1 591/3/1 592/4/1
f 593/1/1 594/2/1 595/3/1 596/4/1
f 597/1/1 598/2/1 599/3/1 600/4/1
f 601/1/1 602/2/1 603/3/1 604/4/1
f 605/1/1 606/2/1 607/3/1 608/4/1
f 609/1/1 610/2/1 611/3/1 612/4/1
f 613/1/1 614/2/1 615/3/1 616/4/1
f 617/1/1 618/2/1 619/3/1 620/4/1
f 621/1/1 622/2/1 623/3/1 624/4/1
f 625/1/1 626/2/1 627/3/1 628/4/1
f 629/1/1 630/2/1 631/3/1 632/4/1
f 633/1/1 634/2/1 635/3/1 636/4/1
f 637/1/1 638/2/1 639/3/1 640/4/1
f 641/1/1 642/2/1 643/3/1 644/4/1
f 645/1/1 646/2/1 647/3/1 648/4/1
f 649/1/1 650/2/1 651/3/1 652/4/1
f 653/1/1 654/2/1 655/3/1 656/4/1
f 657/1/1 658/2/1 659/3/1 660/4/1
f 661/1/1 662/2/1 663/3/1 664/4/1
f 665/1/1 666/2/1 667/3/1 668/4/1
f 669/1/1 670/2/1 671/3/1 672/4/1
f 673/1/1 674/2/1 675/3/1 676/4/1
f 677/1/1 678/2/1 679/3/1 680/4/1
f 681/1/1 682/2/1 683/3/1 684/4/1
f 685/1/1 686/2/1 687/3/1 688/4/1
f 689/1/1 690/2/1 691/3/1 692/4/1
f 693/1/1 694/2/1 695/3/1 696/4/1
f 697/1/1 698/2/1 699/3/1 700/4/1
f 701/1/1 702/2/1 703/3/1 704/4/1
f 705/1/1 706/2/1 707/3/1 708/4/1
f 709/1/1 710/2/1 711/3/1 712/4/1
f 713/1/1 714/2/1 715/3/1 716/4/1
f 717/1/1 718/2/1 719/3/1 720/4/1
f 721/1/1 722/2/1 723/3/1 724/4/1
f 725/1/1 726/2/1 727/3/1 728/4/1
f 729/1/1 730/2/1 731/3/1 732/4/1
f 733/1/1 734/2/1 735/3/1 736/4/1
f 737/1/1 738/2/1 739/3/1 740/4/1
f 741/1/1 742/2/1 743/3/1 744/4/1
f 745/1/1 746/2/1 747/3/1 748/4/1
f 749/1/1 750/2/1 751/3/1 752/4/1
f 753/1/1 754/2/1 755/3/1 756/4/1
f 757/1/1 758/2/1 759/3/1 760/4/1
f 761/1/1 762/2/1 763/3/1 764/4/1
f 765/1/1 766/2/1 767/3/1 768/4/1
f 769/1/1 770/2/1 771/3/1 772/4/1
f 773/1/1 774/2/1 775/3/1 776/4/1
f 777/1/1 778/2/1 779/3/1 780/4/1
f 781/1/1 782/2/1 783/3/1 784/4/1
f 785/1/1 786/2/1 787/3/1 788/4/1
f 789/1/1 790/2/1 791/3/1 792/4/1
f 793/1/1 794/2/1 795/3/1 796/4/1
f 797/1/1 798/2/1 799/3/1 800/4/1
f 801/1/1 802/2/1 803/3/1 804/4/1
f 805/1/1 806/2/1 807/3/1 808/4/1
f 809/1/1 810/2/1 811/3/1 812/4/1
f 813/1/1 814/2/1 815/3/1 816/4/1
f 817/1/1 818/2/1 819/3/1 820/4/1
f 821/1/1 822/2/1 823/3/1 824/4/1
f 825/1/1 826/2/1 827/3/1 828/4/1
f 829/1/1 830/2/1 831/3/1 832/4/1
f 833/1/1 834/2/1 835/3/1 836/4/1
f 837/1/1 838/2/1 839/3/1 840/4/1
f 841/1/1 842/2/1 843/3/1 844/4/1
f 845/1/1 846/2/1 847/3/1 848/4/1
f 849/1/1 850/2/1 851/3/1 852/4/1
f 853/1/1 854/2/1 855/3/1 856/4/1

